<?xml version="1.0" encoding="UTF-8" standalone="no"?>
<svg
   xmlns:dc="http://purl.org/dc/elements/1.1/"
   xmlns:cc="http://creativecommons.org/ns#"
   xmlns:rdf="http://www.w3.org/1999/02/22-rdf-syntax-ns#"
   xmlns:svg="http://www.w3.org/2000/svg"
   xmlns="http://www.w3.org/2000/svg"
   xmlns:sodipodi="http://sodipodi.sourceforge.net/DTD/sodipodi-0.dtd"
   xmlns:inkscape="http://www.inkscape.org/namespaces/inkscape"
   width="102.4007mm"
   height="109.61673mm"
   viewBox="0 0 102.4007 109.61673"
   version="1.1"
   id="svg8"
   inkscape:version="1.0.1 (0767f8302a, 2020-10-17)"
   sodipodi:docname="drawing.svg">
  <defs
     id="defs2">
		
		
		
		
		
		
		
		
		
		
		
		
		
		
		
		
		
		
	
	
</defs>
  <sodipodi:namedview
     id="base"
     pagecolor="#ffffff"
     bordercolor="#666666"
     borderopacity="1.0"
     inkscape:pageopacity="0.0"
     inkscape:pageshadow="2"
     inkscape:zoom="0.65922984"
     inkscape:cx="144.66951"
     inkscape:cy="418.43356"
     inkscape:document-units="mm"
     inkscape:current-layer="g224"
     inkscape:document-rotation="0"
     showgrid="false"
     inkscape:window-width="1920"
     inkscape:window-height="1016"
     inkscape:window-x="0"
     inkscape:window-y="27"
     inkscape:window-maximized="1" />
  <metadata
     id="metadata5">
    <rdf:RDF>
      <cc:Work
         rdf:about="">
        <dc:format>image/svg+xml</dc:format>
        <dc:type
           rdf:resource="http://purl.org/dc/dcmitype/StillImage" />
        <dc:title></dc:title>
      </cc:Work>
    </rdf:RDF>
  </metadata>
  <g
     inkscape:label="Layer 1"
     inkscape:groupmode="layer"
     id="layer1"
     transform="translate(-16.032082,-52.199709)">
    <g
       id="g224"
       transform="matrix(0.26458333,0,0,0.26458333,4.6549987,38.21648)">
      <g
         id="Layer_18">
</g>
      <g
         id="Layer_20">
</g>
      <g
         id="Layer_12">
</g>
      <g
         id="g1310">
        <g
           id="g1185">
          <g
             id="Layer_8"
             style="stroke:#808080">
	<path
   class="st0"
   d="m 79.9,217.7 c -0.3,-10.9 4.3,-24.7 11.8,-26.4 7.5,-1.7 5.1,7.6 2.6,13.2 -2.5,5.6 -0.9,13.6 3.8,17.4 4.7,3.8 19.9,9.9 17.1,1.2 -2.7,-8.8 -5,-14.8 -0.3,-16.4 4.7,-1.6 13.5,3.4 13.2,17.3 -0.3,13.9 -3.9,30.6 -9.5,41.7 -5.6,11.1 -7.2,35.1 -7.3,41.5 0,1.4 0,2.5 -0.1,3.4 -0.1,3.4 -0.1,3.9 -0.1,3.9 0,0 28.8,-10.6 34.1,-11.8 5.3,-1.2 28.6,65.3 28.6,65.3 0,0 -32.2,2 -42.4,3.3 -10.2,1.3 -38.5,3.8 -47.7,2.5 -9.3,-1.3 -40.2,-1.4 -34,-30 6.2,-28.6 15.3,-44.2 18.1,-49.6 2.7,-5.4 9.4,-25.1 8.9,-28.3 -0.5,-3.1 -16.9,-19.8 -8.2,-28 0,0 1.3,-8.8 6.3,-10.7 0,0 -2.6,-6.7 3.7,-7.3 z"
   id="path12"
   style="stroke:#808080" />

	<path
   class="st1"
   d="m 109.9,337.4 c 0,0 1.2,-15.6 1.3,-22.9"
   id="path14"
   style="stroke:#808080" />

</g>
          <g
             id="Layer_17"
             style="fill:#808080;stroke:#808080">
	<g
   id="g20"
   style="fill:#808080;stroke:#808080">
		<path
   d="m 92.4,251.3 c -0.6,0 -1.2,-0.4 -1.5,-1 -3.2,-8.5 -12.1,-9.5 -18.6,-10.2 -1.7,-0.2 -3.1,-0.3 -4.3,-0.6 -0.8,-0.2 -1.4,-1 -1.2,-1.9 0.2,-0.8 1,-1.4 1.9,-1.2 1,0.2 2.4,0.4 4,0.6 6.9,0.8 17.3,1.9 21.2,12.2 0.3,0.8 -0.1,1.7 -0.9,2 -0.2,0.1 -0.4,0.1 -0.6,0.1 z"
   id="path18"
   style="fill:#808080;stroke:#808080" />

	</g>

	<g
   id="g24"
   style="fill:#808080;stroke:#808080">
		<path
   d="m 95.8,242.2 c -0.8,0 -1.4,-0.6 -1.6,-1.3 -1.4,-10.1 -14,-11.5 -18.7,-12 -0.4,0 -0.8,-0.1 -1.1,-0.1 -0.9,-0.1 -1.5,-0.9 -1.4,-1.8 0.1,-0.9 0.9,-1.5 1.8,-1.4 0.3,0 0.6,0.1 1,0.1 4.9,0.5 19.7,2.2 21.5,14.7 0.1,0.9 -0.5,1.7 -1.3,1.8 0,0 -0.1,0 -0.2,0 z"
   id="path22"
   style="fill:#808080;stroke:#808080" />

	</g>

</g>
          <g
             id="Layer_4">
	<path
   class="st2"
   d="m 409.1,353.6 c 27.4,24.1 4.2,58.2 -26.3,54.8 l -1.4,0.1 c -13.4,5.9 -81,-91.6 -81,-91.6 l -15.3,-59.5 c 0,0 -31.4,-39.9 -6.8,-58.3 6.1,-4.6 11.9,-7.4 17.2,-8.8 15.4,-4.2 27.1,2.8 33.6,8.8 8.1,7.6 10.5,26 12.6,54.4 5.6,27 29.4,35.4 50.7,43.8 16.5,6.6 31.5,13.2 35.3,28.7 5.3,18.5 -18.6,27.6 -18.6,27.6 z"
   id="path27"
   inkscape:label="path27"
   style="fill:#20efef;fill-opacity:1;stroke:#808080" />

	<path
   class="st3"
   d="m 391.1,298.9 c -49.4,-1.5 -56.7,-33.6 -58.1,-40.2 -1.6,-7.6 -2.5,-37.6 -8.1,-51.8 -3.6,-9.3 -19.5,-13.3 -30.5,-14.5 14.9,-5 27.3,2.6 33.3,8.1 7.6,6.9 10.5,26 12.6,54.4 5.6,27 29.5,35.6 50.8,44 z"
   id="path29"
   style="fill:#2be2e2;fill-opacity:1" />

</g>
          <rect
             x="108"
             y="128.39999"
             class="st4"
             width="6.0999999"
             height="4.5"
             id="rect32"
             style="fill:#afc3da;fill-opacity:1" />
          <path
             class="st4"
             d="m 101.9,119.4 h -1.5 c -1.7,0 -3,1.4 -3,3 0,1.7 1.4,3 3,3 h 4.5 v -3 c 0.1,-1.7 -1.3,-3 -3,-3 z"
             id="path34"
             style="fill:#afc3da;fill-opacity:1" />
          <rect
             x="108"
             y="136"
             class="st4"
             width="6.0999999"
             height="30.299999"
             id="rect36"
             style="fill:#afc3da;fill-opacity:1" />
          <path
             class="st4"
             d="m 97.4,178.8 c 0,1.4 1.2,2.6 2.6,2.6 h 22.1 c 1.4,0 2.6,-1.2 2.6,-2.6 v -2 H 97.4 Z"
             id="path38"
             style="fill:#afc3da;fill-opacity:1" />
          <circle
             class="st4"
             cx="159.39999"
             cy="60.400002"
             r="3"
             id="circle40"
             style="fill:#767b97;fill-opacity:1" />
          <circle
             class="st4"
             cx="62.599998"
             cy="166.3"
             r="9.1000004"
             id="circle42"
             style="fill:#767b97;fill-opacity:1" />
          <path
             class="st4"
             d="m 105,186 c 0,1.6 1.3,2.9 2.9,2.9 h 6.2 c 1.6,0 2.9,-1.3 2.9,-2.9 v -1.6 h -12 z"
             id="path44"
             style="fill:#afc3da;fill-opacity:1" />
          <rect
             x="97.400002"
             y="169.3"
             class="st4"
             width="27.200001"
             height="4.5"
             id="rect46"
             style="fill:#afc3da;fill-opacity:1" />
          <circle
             class="st4"
             cx="167"
             cy="139"
             r="6.0999999"
             id="circle48"
             style="fill:#dabe61;fill-opacity:1" />
          <path
             class="st4"
             d="m 124.6,122.4 c 0,-1.7 -1.4,-3 -3,-3 h -1.5 c -1.7,0 -3,1.4 -3,3 v 3 h 4.5 c 1.7,0 3,-1.3 3,-3 z"
             id="path52"
             style="fill:#afc3da;fill-opacity:1" />
          <path
             class="st4"
             d="m 62.6,59.6 c 0,3 -4.5,3 -4.5,0 0,-3 4.5,-3 4.5,0"
             id="path54"
             style="fill:#817c6a;fill-opacity:1" />
          <path
             class="st4"
             d="m 47.5,94.4 c 0,3 -4.5,3 -4.5,0 0,-3 4.5,-3 4.5,0"
             id="path56" />
          <path
             class="st4"
             d="m 62.6,139.8 c 0,3 -4.5,3 -4.5,0 0,-3 4.5,-3 4.5,0"
             id="path58"
             style="fill:#cbbfab;fill-opacity:1" />
          <path
             class="st4"
             d="m 171.5,115.6 c 0,3 -4.5,3 -4.5,0 0,-3 4.5,-3 4.5,0"
             id="path60" />
          <path
             class="st4"
             d="m 151.9,161 c 0,3 -4.5,3 -4.5,0 -0.1,-3.1 4.5,-3.1 4.5,0"
             id="path62"
             style="fill:#817c6a;fill-opacity:1" />
          <path
             class="st4"
             d="m 86.8,182.1 c 0,3 -4.5,3 -4.5,0 0,-3 4.5,-3 4.5,0"
             id="path64"
             style="fill:#8c90a5;fill-opacity:1" />
          <path
             class="st4"
             d="m 145.8,55.1 c 0,3 -4.5,3 -4.5,0 0,-3 4.5,-3 4.5,0"
             id="path66" />
          <g
             id="Layer_6"
             style="fill:#808080">
	<path
   d="m 145.1,301 c 0,0 54.3,-12.3 56.7,8.8 l 70.6,-0.5 c 0,0 59,-4.4 83.4,55.4 l -41.8,78 -130.1,-1.5 c 0,0 -11.5,-25.3 -11.5,-32.4 0,-7.1 -38.6,-12.5 -12.4,-53.7 0,0 -19.6,-19.9 -14.9,-54.1 z"
   id="path74"
   style="fill:#808080" />

</g>
          <g
             id="Layer_15">
	<g
   id="g83">
		<g
   id="g81"
   style="fill:#20efef;fill-opacity:1">
			<path
   d="m 345.7,361.9 -0.8,-1.3 c -23.5,-36.7 -54.6,-42.7 -71,-43 -0.5,0 -0.8,0 -1,0 l -1.6,-0.1 0.2,-3 1.6,0.1 c 0.2,0 0.5,0 0.9,0 17,0.3 49.3,6.5 73.6,44.5 l 0.8,1.3 z"
   id="path77"
   style="fill:#20efef;fill-opacity:1" />

			<path
   class="st6"
   d="m 345.7,363.4 c -0.5,0 -1,-0.3 -1.3,-0.7 l -0.8,-1.3 c -23.1,-36.1 -53.6,-42 -69.7,-42.3 -0.5,0 -0.9,0 -1.1,0 l -1.6,-0.1 c -0.4,0 -0.8,-0.2 -1.1,-0.5 -0.3,-0.3 -0.4,-0.7 -0.4,-1.1 l 0.2,-3 c 0.1,-0.8 0.8,-1.5 1.6,-1.4 l 1.6,0.1 c 0.1,0 0.3,0 0.6,0 h 0.2 c 17.4,0.3 50.2,6.6 74.8,45.2 l 0.8,1.3 c 0.2,0.4 0.3,0.8 0.2,1.2 -0.1,0.4 -0.4,0.8 -0.7,1 l -2.7,1.6 c 0,0 -0.3,0 -0.6,0 z m -15.3,-23.2 c 5.5,5.3 10.8,11.7 15.8,19.5 v 0 0 c -5,-7.7 -10.3,-14.2 -15.8,-19.5 z"
   id="path79"
   style="fill:#20efef;fill-opacity:1" />

		</g>

	</g>

	<g
   id="g87">
		<path
   class="st7"
   d="m 194.2,309.3 c -0.2,0 -0.5,-0.1 -0.7,-0.2 -16.1,-8.3 -45,-1.1 -45.3,-1 -0.8,0.2 -1.7,-0.3 -1.9,-1.1 -0.2,-0.8 0.3,-1.7 1.1,-1.9 1.2,-0.3 30.4,-7.6 47.5,1.3 0.8,0.4 1.1,1.3 0.7,2.1 -0.3,0.5 -0.9,0.8 -1.4,0.8 z"
   id="path85"
   style="fill:#20efef;fill-opacity:1" />

	</g>

</g>
          <g
             id="Layer_13"
             style="fill:#20efef;fill-opacity:1">
	<g
   id="g96"
   style="fill:#20efef;fill-opacity:1">
		<path
   class="st8"
   d="M 192.6,419.5 H 308.2 V 416 h -1.6 v -7.2 c 0,-1.8 -1.5,-3.3 -3.4,-3.3 H 192.6 v -11.8 h 115.6 v -3.5 H 192.6 c -8.1,0 -14.6,6.5 -14.6,14.6 0,8.2 6.5,14.7 14.6,14.7 z"
   id="path90"
   style="fill:#20efef;fill-opacity:1" />

		<path
   class="st8"
   d="M 301.5,423.9 H 185.9 v 3.5 h 115.6 v 11.1 c -0.1,0 -0.2,0 -0.3,0 H 192.7 c -1.8,0 -3.4,1.5 -3.4,3.3 v 7.9 c 0,0 0,0 0,0 h -3.5 v 3.5 h 115.6 c 8.1,0 14.6,-6.5 14.6,-14.6 0.1,-8.2 -6.4,-14.7 -14.5,-14.7 z"
   id="path92"
   style="fill:#20efef;fill-opacity:1" />

		<path
   class="st8"
   d="m 312.7,371.1 c 1.8,0 3.4,-1.5 3.4,-3.3 V 360 h 3.5 v -3.5 H 204 c -8.1,0 -14.6,6.5 -14.6,14.6 0,8.1 6.5,14.6 14.6,14.6 h 115.6 v -3.5 H 203.9 V 371 Z"
   id="path94"
   style="fill:#20efef;fill-opacity:1" />

	</g>

</g>
          <g
             id="Layer_9"
             style="stroke:#808080">
	<path
   class="st0"
   d="m 190.3,419.4 c -0.4,-4.6 13.8,-3.8 22.9,0 9.1,3.8 34.2,4.2 34.6,-1.2 0.4,-5.4 -10.9,-13.6 -10.7,-15 0.2,-1.4 -0.4,-5.7 6.7,-3.2 7.1,2.4 27.1,18.8 27.1,18.8 l 56.1,-1.4 c 0,0 -8.2,-5.9 -5.1,-9.8 3,-3.8 6.7,-10.3 -5.3,-11.9 0,0 9.3,-5.7 8.3,-19 l 29.2,-11.1 c 0,0 33.4,48.6 35.4,52.6 2,4 13.6,39.3 -4.9,44.5 -18.4,5.3 -50.8,2.2 -67.8,-1.4 -17,-3.6 -50.6,-10.1 -60.7,-9.5 -10.1,0.6 -62.5,2.5 -65.8,-32.4 z"
   id="path99"
   style="stroke:#808080" />

</g>
          <g
             id="Layer_3"
             style="stroke:#808080">
	<path
   class="st9"
   d="m 241.6,276.4 -52.1,-53.6 c 0,0 0.3,-7.9 4.2,-17.2 4.7,-10.9 14.7,-23.7 35.6,-27.1 17.9,-2.9 33.7,3.3 45.7,12.7 13.8,10.8 22.5,25.9 23.4,35.8 1.5,18.5 -3.6,52.7 -56.8,49.4 z"
   id="path102"
   style="fill:#20efef;fill-opacity:1;stroke:#808080" />

</g>
          <g
             id="Layer_5"
             style="stroke:#808080">
	<path
   class="st1"
   d="m 207.9,267.6 c 0,0 19.7,50.4 -10.8,36.2 0,0 -10.5,36.9 21.1,35.2 31.6,-1.7 54.2,-28 54.2,-28 0,0 -21.6,2.3 -25.6,-8.7 -4,-11 -7.3,-46.7 -7.3,-46.7 z"
   id="path105"
   style="stroke:#808080" />

</g>
          <g
             id="Layer_14"
             style="fill:#34d8d8;fill-opacity:1">
	<path
   class="st3"
   d="m 274.2,192.9 c -43.7,-18.9 -68.3,0.6 -79.4,14.4 4.6,-10.9 14.3,-23.7 34.8,-27.1 17.4,-3 32.9,3.3 44.6,12.7 z"
   id="path109"
   style="fill:#34d8d8;fill-opacity:1" />

</g>
          <g
             id="Layer_2"
             style="stroke:#808080">
	<path
   class="st10"
   d="m 223.3,193.1 c -4.2,3.5 -14.8,7.9 -21.4,17.2 -6.7,9.3 -19,9.1 -19,12.3 0,3.2 2.5,6.8 3,7.4 0.5,0.5 -5.3,14.2 -3,23.5 2.3,9.3 27.7,34.1 60.1,2.5 0,0 22.7,11.8 26.3,-8.3 0,0 -1.4,-15.3 -19.7,-8.4 z"
   id="path112"
   style="stroke:#808080" />

</g>
          <g
             id="Layer_11"
             style="stroke:#808080">
	<path
   class="st11"
   d="m 79.2,219.6 c 3.5,-0.2 13.5,3.7 16.9,6.7 3.7,3.3 5.8,10 5.2,12.2 -0.7,2.2 -5.5,2.1 -5.5,2.1 0,0 2.7,9.1 -3.4,9.1 0,0 -2.2,8.7 -7.8,6.6 -5.6,-2.1 -7.1,-8.1 -10.2,-7.5"
   id="path115"
   style="stroke:#808080" />

</g>
          <g
             id="Layer_10"
             style="fill:#808080">
	<ellipse
   transform="matrix(0.7071,-0.7071,0.7071,0.7071,-94.9033,218.1475)"
   cx="215.89999"
   cy="223.60001"
   rx="4.5999999"
   ry="2.4000001"
   id="ellipse119"
   style="fill:#808080" />

	<ellipse
   cx="256.29999"
   cy="246.89999"
   rx="5.8000002"
   ry="2.2"
   id="ellipse121"
   style="fill:#808080" />

	<g
   id="g125"
   style="fill:#808080">
		<path
   d="m 229.9,225.8 c 0,0 0,0 0,0 -1,0 -1.6,-0.8 -1.6,-1.7 0.2,-3.4 -0.7,-6.1 -2.5,-7.9 -3.3,-3.3 -8.7,-3.1 -8.7,-3.1 -0.9,0 -1.6,-0.6 -1.6,-1.5 0,-0.9 0.6,-1.6 1.5,-1.6 0.3,0 6.8,-0.2 11.1,4.1 2.5,2.5 3.6,6 3.4,10.3 0,0.7 -0.7,1.4 -1.6,1.4 z"
   id="path123"
   style="fill:#808080" />

	</g>

	<g
   id="g129"
   style="fill:#808080">
		<path
   d="m 197.2,249.1 c -1.8,0 -3.8,-0.2 -5.9,-0.5 -0.9,-0.1 -1.5,-0.9 -1.3,-1.8 0.1,-0.9 0.9,-1.5 1.8,-1.3 6.7,1 11.9,0.2 15,-2.2 0.8,-0.6 1.4,-1.3 1.8,-1.9 -10.1,3.5 -17.8,-0.6 -18.2,-0.8 -0.8,-0.4 -1.1,-1.4 -0.6,-2.1 0.4,-0.8 1.4,-1 2.1,-0.6 0.3,0.2 8.5,4.4 18.8,-0.7 0.5,-0.3 1.1,-0.2 1.6,0.1 0.5,0.3 0.7,0.9 0.7,1.4 0,0.2 -0.4,4.1 -4.1,7.1 -2.9,2.1 -6.8,3.3 -11.7,3.3 z"
   id="path127"
   style="fill:#808080" />

	</g>

</g>
          <g
             id="Layer_16"
             style="fill:#808080;stroke:#999999">
	<g
   id="g134"
   style="fill:#808080;stroke:#999999">
		<path
   d="m 222,433.2 c -22.1,0 -31.4,-11.4 -31.8,-12 -0.5,-0.7 -0.4,-1.7 0.3,-2.2 0.7,-0.5 1.7,-0.4 2.2,0.3 0.1,0.2 10.6,12.8 35.5,10.5 0.9,-0.1 1.6,0.6 1.7,1.4 0.1,0.9 -0.6,1.6 -1.4,1.7 -2.3,0.2 -4.5,0.3 -6.5,0.3 z"
   id="path132"
   style="fill:#808080;stroke:#999999" />

	</g>

	<g
   id="g138"
   style="fill:#808080;stroke:#999999">
		<path
   d="m 223.8,442.1 c -10,0 -29.2,-1.6 -33.2,-13.7 -0.3,-0.8 0.2,-1.7 1,-2 0.8,-0.3 1.7,0.2 2,1 4.6,13.8 35.6,11.4 36,11.4 0.9,-0.1 1.6,0.6 1.7,1.4 0.1,0.9 -0.6,1.6 -1.4,1.7 -0.5,0 -2.8,0.2 -6.1,0.2 z"
   id="path136"
   style="fill:#808080;stroke:#999999" />

	</g>

</g>
          <circle
             class="st4"
             cx="84.274025"
             cy="91.633156"
             r="18.308155"
             id="circle277"
             style="fill:#5f6581;fill-opacity:1;stroke-width:2.01188" />
          <circle
             class="st4"
             cx="139.00964"
             cy="86.710571"
             r="6.8032408"
             id="circle277-3"
             style="fill:#ccc8ca;fill-opacity:1;stroke-width:0.747607" />
        </g>
      </g>
    </g>
  </g>
  <style
     type="text/css"
     id="style10">
	.st0{fill:#FFFFFF;stroke:#000000;stroke-width:3.1462;stroke-miterlimit:10;}
	.st1{fill:#FFFFFF;stroke:#000000;stroke-width:3.1462;stroke-linecap:round;stroke-linejoin:round;stroke-miterlimit:10;}
	.st2{fill:#FFCF1E;stroke:#000000;stroke-width:3.1462;stroke-miterlimit:10;}
	.st3{fill:#FEF8DC;}
	.st4{fill:#FDCF22;}
	.st5{fill:#FFCF1E;stroke:#000000;stroke-width:3.1462;stroke-linecap:round;stroke-linejoin:round;stroke-miterlimit:10;}
	.st6{fill:#FFCF1E;}
	.st7{fill:#EDBA18;}
	.st8{fill:#FFCF21;}
	.st9{fill:#FDCF22;stroke:#000000;stroke-width:3.1462;stroke-miterlimit:10;}
	.st10{fill:#FDFFFF;stroke:#000000;stroke-width:3.1462;stroke-miterlimit:10;}
	.st11{fill:none;stroke:#000000;stroke-width:3.1462;stroke-linecap:round;stroke-linejoin:round;stroke-miterlimit:10;}
</style>
</svg>
